<svg xmlns="http://www.w3.org/2000/svg" viewBox="0 0 680 680" width="512" height="512">
<defs>
  <path id="arc-top" d="M 108,340 A 232,232 0 0,1 572,340"/>
  <path id="arc-bot" d="M 155,460 A 232,232 0 0,0 525,460"/>
</defs>
<circle cx="340" cy="340" r="330" fill="#0A1628"/>
<circle cx="340" cy="340" r="318" fill="none" stroke="#C8A951" stroke-width="9"/>
<circle cx="340" cy="340" r="296" fill="none" stroke="#C8A951" stroke-width="1.5" opacity="0.3"/>
<g fill="#C8A951">
  <circle cx="340" cy="44"  r="8"/>
  <circle cx="549" cy="131" r="8"/>
  <circle cx="636" cy="340" r="8"/>
  <circle cx="549" cy="549" r="8"/>
  <circle cx="340" cy="636" r="8"/>
  <circle cx="131" cy="549" r="8"/>
  <circle cx="44"  cy="340" r="8"/>
  <circle cx="131" cy="131" r="8"/>
</g>
<path d="M272 248 Q224 254 222 296 Q220 332 262 344" fill="none" stroke="#C8A951" stroke-width="20" stroke-linecap="round" stroke-linejoin="round"/>
<path d="M408 248 Q456 254 458 296 Q460 332 418 344" fill="none" stroke="#C8A951" stroke-width="20" stroke-linecap="round" stroke-linejoin="round"/>
<path d="M272 232 L272 248 Q255 300 258 338 Q262 374 300 400 L300 428 L380 428 L380 400 Q418 374 422 338 Q425 300 408 248 L408 232 Z" fill="#C8A951"/>
<path d="M290 240 Q276 292 279 332 Q283 364 312 386 L312 428 L368 428 L368 386 Q397 364 401 332 Q404 292 390 240 Z" fill="#8B6914" opacity="0.45"/>
<circle cx="340" cy="322" r="44" fill="#F0F4FA"/>
<circle cx="340" cy="322" r="44" fill="none" stroke="#C8A951" stroke-width="1.5" opacity="0.4"/>
<path d="M340 278 L357 291 L351 312 L329 312 L323 291 Z" fill="#0A1628" opacity="0.75"/>
<path d="M323 291 L306 304 L308 326 L329 312 Z" fill="#0A1628" opacity="0.45"/>
<path d="M357 291 L374 304 L372 326 L351 312 Z" fill="#0A1628" opacity="0.45"/>
<path d="M329 312 L308 326 L312 346 L340 354 L368 346 L372 326 L351 312 Z" fill="#0A1628" opacity="0.28"/>
<rect x="322" y="426" width="36" height="30" rx="2" fill="#C8A951"/>
<rect x="284" y="454" width="112" height="20" rx="5" fill="#C8A951"/>
<rect x="290" y="459" width="100" height="6" rx="3" fill="#F0F4FA" opacity="0.18"/>
<path d="M340 200 L347 220 L369 220 L352 233 L359 253 L340 240 L321 253 L328 233 L311 220 L333 220 Z" fill="#C8A951"/>
<text font-family="'Arial Black', Arial, sans-serif" font-weight="900" font-size="34" fill="#C8A951" letter-spacing="10">
  <textPath href="#arc-top" startOffset="50%" text-anchor="middle">WC POOL</textPath>
</text>
<text font-family="'Arial Black', Arial, sans-serif" font-weight="900" font-size="38" fill="#C8A951" letter-spacing="6">
  <textPath href="#arc-bot" startOffset="50%" text-anchor="middle">2026</textPath>
</text>
</svg>
